<svg width="512" height="512" viewBox="0 0 512 512" fill="none" xmlns="http://www.w3.org/2000/svg">
<rect width="512" height="512" rx="108" fill="white"/>
<g clip-path="url(#clip0_1_6)">
<g filter="url(#filter0_d_1_6)">
<path d="M220.444 142.222C220.444 142.222 220.444 128 234.667 128C248.889 128 248.889 142.222 248.889 142.222V156.444C248.889 156.444 248.889 170.667 234.667 170.667C220.444 170.667 220.444 156.444 220.444 156.444V142.222ZM156.444 220.444C156.444 220.444 170.667 220.444 170.667 234.667C170.667 248.889 156.444 248.889 156.444 248.889H142.222C142.222 248.889 128 248.889 128 234.667C128 220.444 142.222 220.444 142.222 220.444H156.444ZM183.979 170.972C183.979 170.972 194.034 181.028 183.979 191.083C173.924 201.138 163.868 191.083 163.868 191.083L153.806 181.035C153.806 181.035 143.751 170.98 153.806 160.917C163.868 150.862 173.924 160.917 173.924 160.917L183.979 170.972ZM305.472 191.083C305.472 191.083 295.417 201.138 285.362 191.083C275.307 181.028 285.362 170.972 285.362 170.972L295.417 160.917C295.417 160.917 305.472 150.862 315.527 160.917C325.582 170.972 315.527 181.028 315.527 181.028L305.472 191.083Z" fill="#FFAC33"/>
</g>
<path d="M234.667 291.556C266.086 291.556 291.556 266.086 291.556 234.667C291.556 203.248 266.086 177.778 234.667 177.778C203.248 177.778 177.778 203.248 177.778 234.667C177.778 266.086 203.248 291.556 234.667 291.556Z" fill="#FFAC33"/>
<g filter="url(#filter1_d_1_6)">
<path d="M328.697 219.022C322.987 219.022 317.497 219.868 312.313 221.44C306.183 204.309 289.55 192 269.924 192C248.882 192 231.26 206.158 226.382 225.244C220.989 221.215 214.44 219.033 207.708 219.022C190.521 219.022 176.597 232.633 176.597 249.422C176.597 253.497 177.451 257.38 178.937 260.935C175.926 260.065 172.812 259.601 169.678 259.556C150.585 259.556 135.111 274.674 135.111 293.333C135.111 311.993 150.585 327.111 169.678 327.111H328.69C359.239 327.111 384 302.919 384 273.067C384 243.214 359.239 219.022 328.697 219.022Z" fill="#E1E8ED"/>
</g>
<path d="M213.326 369.5L212.523 345.173L192.121 357.319C189.82 358.55 187.911 360.402 186.609 362.663C185.307 364.924 184.664 367.504 184.754 370.112C184.902 373.9 186.532 377.479 189.294 380.076C192.055 382.674 195.726 384.083 199.516 384C201.38 383.971 203.219 383.571 204.927 382.823C206.634 382.075 208.176 380.995 209.461 379.646C210.747 378.296 211.751 376.704 212.414 374.962C213.078 373.22 213.388 371.363 213.326 369.5ZM163.698 358.549L162.887 334.222L142.485 346.368C140.184 347.599 138.274 349.45 136.972 351.711C135.67 353.972 135.028 356.553 135.118 359.161C135.266 362.949 136.897 366.528 139.658 369.125C142.419 371.723 146.091 373.132 149.881 373.049C151.745 373.021 153.585 372.621 155.294 371.874C157.002 371.127 158.544 370.047 159.83 368.697C161.117 367.347 162.121 365.755 162.785 364.012C163.449 362.27 163.759 360.413 163.698 358.549ZM263.253 362.389L262.45 338.062L242.048 350.208C239.748 351.439 237.838 353.29 236.536 355.552C235.234 357.813 234.591 360.393 234.681 363.001C234.829 366.789 236.46 370.368 239.221 372.965C241.982 375.563 245.653 376.972 249.444 376.889C251.307 376.86 253.147 376.46 254.854 375.712C256.561 374.964 258.103 373.884 259.388 372.534C260.674 371.185 261.678 369.592 262.341 367.851C263.005 366.109 263.315 364.252 263.253 362.389ZM305.764 369.5L304.96 345.173L284.558 357.319C282.258 358.55 280.349 360.401 279.048 362.663C277.747 364.924 277.106 367.505 277.198 370.112C277.346 373.9 278.977 377.479 281.738 380.076C284.499 382.674 288.171 384.083 291.961 384C293.824 383.971 295.663 383.571 297.37 382.823C299.077 382.075 300.618 380.995 301.903 379.645C303.188 378.295 304.191 376.703 304.854 374.961C305.517 373.219 305.826 371.363 305.764 369.5ZM348.58 358.549L347.769 334.222L327.367 346.368C325.067 347.599 323.158 349.45 321.857 351.712C320.556 353.973 319.915 356.554 320.007 359.161C320.154 362.95 321.783 366.529 324.545 369.127C327.307 371.725 330.979 373.134 334.77 373.049C336.633 373.02 338.473 372.62 340.18 371.872C341.888 371.124 343.429 370.044 344.715 368.694C346 367.345 347.004 365.753 347.668 364.011C348.331 362.269 348.641 360.412 348.58 358.549Z" fill="#5DADEC"/>
</g>
<defs>
<filter id="filter0_d_1_6" x="124" y="128" width="199.996" height="128.889" filterUnits="userSpaceOnUse" color-interpolation-filters="sRGB">
<feFlood flood-opacity="0" result="BackgroundImageFix"/>
<feColorMatrix in="SourceAlpha" type="matrix" values="0 0 0 0 0 0 0 0 0 0 0 0 0 0 0 0 0 0 127 0" result="hardAlpha"/>
<feOffset dy="4"/>
<feGaussianBlur stdDeviation="2"/>
<feComposite in2="hardAlpha" operator="out"/>
<feColorMatrix type="matrix" values="0 0 0 0 0 0 0 0 0 0 0 0 0 0 0 0 0 0 0.25 0"/>
<feBlend mode="normal" in2="BackgroundImageFix" result="effect1_dropShadow_1_6"/>
<feBlend mode="normal" in="SourceGraphic" in2="effect1_dropShadow_1_6" result="shape"/>
</filter>
<filter id="filter1_d_1_6" x="131.111" y="192" width="256.889" height="143.111" filterUnits="userSpaceOnUse" color-interpolation-filters="sRGB">
<feFlood flood-opacity="0" result="BackgroundImageFix"/>
<feColorMatrix in="SourceAlpha" type="matrix" values="0 0 0 0 0 0 0 0 0 0 0 0 0 0 0 0 0 0 127 0" result="hardAlpha"/>
<feOffset dy="4"/>
<feGaussianBlur stdDeviation="2"/>
<feComposite in2="hardAlpha" operator="out"/>
<feColorMatrix type="matrix" values="0 0 0 0 0 0 0 0 0 0 0 0 0 0 0 0 0 0 0.25 0"/>
<feBlend mode="normal" in2="BackgroundImageFix" result="effect1_dropShadow_1_6"/>
<feBlend mode="normal" in="SourceGraphic" in2="effect1_dropShadow_1_6" result="shape"/>
</filter>
<clipPath id="clip0_1_6">
<rect width="256" height="256" fill="white" transform="translate(128 128)"/>
</clipPath>
</defs>
</svg>
